<svg width="42" height="74" viewBox="0 0 42 74" fill="none" xmlns="http://www.w3.org/2000/svg">
    <path d="M41.2823 40.6196L29.1917 19.2731C28.5304 18.1365 27.3365 17.5066 26.1105 17.5088C26.0881 17.5074 26.0658 17.5054 26.0429 17.5054H16.0544C16.0316 17.5054 16.0093 17.5074 15.9868 17.5088C14.7608 17.5064 13.5671 18.1364 12.9057 19.2731L0.483751 40.6196C-0.504363 42.3174 0.0695401 44.4958 1.76537 45.485C2.32821 45.8133 2.94365 45.9693 3.55109 45.9693C4.77432 45.9693 5.96486 45.3362 6.62507 44.2019L12.104 34.7864V38.8176L9.6519 56.5077C9.44539 57.9978 10.6015 59.3271 12.1041 59.3271V70.1553C12.1041 72.1911 13.6854 73.9251 15.7175 73.9976C17.851 74.0736 19.6047 72.3645 19.6047 70.2453V59.3269H22.5677V70.1551C22.5677 72.1911 24.1489 73.9251 26.1814 73.9974C28.3149 74.0732 30.0681 72.3643 30.0681 70.2451V59.3268C31.5707 59.3268 32.7268 57.9974 32.5203 56.5074L30.0681 38.8169V34.9153L35.4717 44.2016C35.6556 44.5172 36.755 45.9194 38.0556 45.9693C39.3562 46.0192 39.8468 46.1281 41.2823 44.9297C42.7177 43.7312 41.2823 40.6196 41.2823 40.6196Z" fill="#0B7FE5"/>
    <path d="M8.5831 15.7564L10.5874 15.5808C11.74 15.4799 12.5523 14.4212 12.3267 13.3058C11.9827 11.6012 11.8638 9.2355 13.304 7.77262C13.3024 7.83422 13.2992 7.89531 13.2992 7.95707C13.2992 12.3514 16.9246 15.914 21.3964 15.914C25.8681 15.914 29.4934 12.3514 29.4934 7.95707C29.4934 7.89531 29.4902 7.83422 29.4885 7.77262C30.9288 9.23567 30.8098 11.6012 30.4656 13.3058C30.2405 14.4212 31.0525 15.4799 32.205 15.5808L34.2092 15.7564C35.2687 15.8492 36.2077 15.0916 36.3211 14.0523C36.597 11.5289 36.549 7.74291 35.0967 6.23958C32.953 4.02058 30.3017 3.99809 28.5889 4.30406C27.242 1.74804 24.5278 0 21.3966 0C18.2653 0 15.551 1.74787 14.2039 4.30406C12.4913 3.99826 9.8395 4.02058 7.69615 6.23958C6.24419 7.74291 6.19619 11.529 6.47135 14.0523C6.58493 15.0916 7.52381 15.8492 8.5831 15.7564Z" fill="#0B7FE5"/>
</svg>
