<svg width="42" height="71" viewBox="0 0 42 71" fill="none" xmlns="http://www.w3.org/2000/svg">
    <path d="M21.0004 15.9551C25.5959 15.9551 29.3212 12.3834 29.3212 7.97753C29.3212 3.57166 25.5959 0 21.0004 0C16.405 0 12.6797 3.57166 12.6797 7.97753C12.6797 12.3834 16.405 15.9551 21.0004 15.9551Z" fill="#0B7FE5"/>
    <path d="M41.5153 40.9388L29.0658 19.3182C28.4694 18.2825 27.2585 17.5505 26.3459 17.5505C26.127 17.5505 15.9677 17.5505 15.749 17.5505C14.8364 17.5505 13.6255 18.2825 13.0291 19.3182L0.240246 40.9388C0.240246 40.9388 -0.240246 42.4781 0.240246 44.2753C0.720739 46.0724 3.0447 46.3568 3.6535 46.3568C4.87946 46.3568 6.07266 45.7158 6.73435 44.5667L12.0707 35.299L12.0194 67.1971C12.0194 69.2974 13.7019 70.9999 15.7778 70.9999C15.7865 70.9999 15.7948 70.9987 15.8036 70.9985C15.8123 70.9985 15.8206 70.9999 15.8295 70.9999C17.9053 70.9999 19.5882 69.2974 19.5882 67.1971L19.5367 47.9502C19.5367 47.1501 20.1334 46.4514 20.9227 46.3998C21.7875 46.3432 22.5063 47.036 22.5063 47.8988V67.1057C22.5063 69.1677 24.0911 70.924 26.1277 70.9975C28.266 71.0745 30.0237 69.3435 30.0237 67.1971V35.2992L35.36 44.5669C36.0217 45.716 37.2149 46.357 38.4409 46.357C39.0497 46.357 39.6667 46.1988 40.2306 45.8665C41.9304 44.8645 42.5054 42.6582 41.5153 40.9388Z" fill="#0B7FE5"/>
</svg>
