<svg width="12" height="15" viewBox="3 0 10 15" fill="none" xmlns="http://www.w3.org/2000/svg">
<path d="M11.7555 7.68525L9.93916 6.64636C9.82266 6.57978 9.68189 6.40252 9.64397 6.27463L9.08137 4.37746C9.06739 4.33 9.04618 4.28763 9.02015 4.25037C8.93835 4.10129 8.78071 4 8.598 4L6.19642 4.10273C6.09117 4.10719 5.9933 4.14668 5.91312 4.21214C5.89705 4.22186 5.88033 4.23125 5.86587 4.24224L4.23402 5.48961C4.04552 5.63375 3.93994 5.9268 3.99394 6.15662L4.64009 8.91191C4.69392 9.14189 4.916 9.31549 5.15624 9.31549C5.17247 9.31549 5.18886 9.31469 5.20509 9.3131L5.4463 9.28921C5.5755 9.27631 5.69216 9.21133 5.76608 9.11068C5.84016 9.01002 5.867 8.88006 5.83984 8.75424L5.38041 6.62725C5.35631 6.5156 5.41737 6.35044 5.50865 6.28084L5.79934 6.05899L5.94879 9.47428C5.94895 9.47794 5.95008 9.48129 5.9504 9.48495L5.28705 10.9432C5.20349 11.1268 4.99362 11.3812 4.82875 11.4989L3.27354 12.6086C3.02302 12.7873 2.92837 13.1447 3.05789 13.4225L3.27065 13.8781C3.3555 14.0599 3.52567 14.1728 3.71497 14.1728C3.82328 14.1728 3.92982 14.1363 4.02302 14.0677L6.07638 12.5522C6.28095 12.4013 6.53324 12.1074 6.6507 11.883L7.67578 9.92627C7.68397 9.91051 7.68911 9.89362 7.69586 9.87722L7.76737 9.87419L9.44519 14.4588C9.56362 14.7824 9.87954 15 10.2313 15C10.3149 15 10.3975 14.9874 10.4768 14.9624L10.5803 14.9298C10.7854 14.8653 10.9501 14.7256 11.0443 14.5364C11.1383 14.3472 11.1497 14.1325 11.0764 13.9321L9.30956 9.10462C9.30136 9.08233 9.29012 9.06194 9.28031 9.04076L9.22359 7.74529L11.1715 8.74819C11.24 8.78354 11.3171 8.80218 11.3947 8.80218C11.575 8.80218 11.7401 8.7055 11.8254 8.5499L11.9413 8.3384C12.0672 8.10889 11.9838 7.81585 11.7555 7.68525Z" fill="white"/>
<path d="M7.49924 3C7.52097 3 7.54298 2.99958 7.56499 2.99862C7.96519 2.98131 8.3348 2.80898 8.60556 2.51373C8.87633 2.21849 9.01587 1.83534 8.99856 1.43517C8.96285 0.608673 8.27209 -0.0344215 7.43501 0.00142902C7.03481 0.0187314 6.6652 0.191063 6.39444 0.486311C6.12367 0.781697 5.98413 1.1647 6.00144 1.56487C6.03632 2.36964 6.69427 3 7.49924 3Z" fill="white"/>
</svg>
