<svg width="13" height="13" viewBox="0 0 13 13" fill="none" xmlns="http://www.w3.org/2000/svg">
<path fill-rule="evenodd" clip-rule="evenodd" d="M7.11324 5.27465V1.03445C7.11324 0.660679 7.44413 0.366562 7.81177 0.421709C10.1892 0.758719 12.0152 2.80529 12.0152 5.27465H7.11324ZM12.0152 5.88739C12.0152 7.01485 11.6292 8.05651 10.9858 8.88372C11.5495 9.38617 11.8498 10.1766 11.6353 11.0283C11.4392 11.8004 10.802 12.4131 10.0238 12.5786C8.74927 12.8482 7.60344 11.9781 7.438 10.7894H6.16349C5.99805 11.9842 4.84609 12.8543 3.55932 12.5724C2.78726 12.4009 2.15001 11.782 1.96618 11.0099C1.72109 9.98666 2.21741 9.03078 3.03236 8.59573C2.89143 8.38127 1.73334 5.88739 1.73334 5.88739H0.985792C0.648782 5.88739 0.373047 5.61166 0.373047 5.27465C0.373047 4.93764 0.648782 4.6619 0.985792 4.6619H2.1255C2.35834 4.6619 2.57893 4.79671 2.67697 5.01117L3.09364 5.88739H12.0152ZM4.04952 11.4021C3.54094 11.4021 3.1304 10.9916 3.1304 10.483C3.1304 9.97441 3.54094 9.56387 4.04952 9.56387C4.5581 9.56387 4.96864 9.97441 4.96864 10.483C4.96864 10.9916 4.5581 11.4021 4.04952 11.4021ZM8.64511 10.483C8.64511 10.9916 9.05564 11.4021 9.56422 11.4021C10.0728 11.4021 10.4833 10.9916 10.4833 10.483C10.4833 9.97441 10.0728 9.56387 9.56422 9.56387C9.05564 9.56387 8.64511 9.97441 8.64511 10.483Z" fill="white"/>
</svg>
