<svg fill="none" height="60" viewBox="0 0 60 60" width="60" xmlns="http://www.w3.org/2000/svg">
    <defs>
        <linearGradient gradientUnits="userSpaceOnUse" id="paint0_linear" x1="-22" x2="30" y1="27"
            y2="79">
            <stop stop-color="#DFDFDF" />
            <stop offset="1" stop-color="#A6A5A5" />
        </linearGradient>
    </defs>
    <path clip-rule="evenodd" d="M30 53C44.3594 53 56 41.3594 56 27C56 12.6406 44.3594 1 30 1C15.6406 1 4 12.6406 4 27C4 41.3594 15.6406 53 30 53Z"
        fill="url(#paint0_linear)"
        fill-rule="evenodd" stroke="#979797" stroke-width="0.2" />
    <path clip-rule="evenodd" d="M32 21.3245C32 20.291 31.8727 19.302 31.6427 18.3838C31.6083 18.245 31.5174 18.1277 31.393 18.0601C31.3196 18.0202 31.2381 18 31.1559 18C31.0998 18 31.0435 18.0094 30.9894 18.0288C29.8232 18.4442 28.0238 18.7114 26 18.7114C23.9762 18.7114 22.1769 18.4442 21.0107 18.0288C20.9569 18.0094 20.9008 18 20.8448 18C20.7626 18 20.6807 18.0204 20.607 18.0604C20.4829 18.128 20.3918 18.2453 20.3573 18.3838C20.1273 19.302 20 20.291 20 21.3245C20 26.1159 22.6862 30 26 30C29.3138 30 32 26.1159 32 21.3245ZM22.4027 22.4027C22.4027 21.9731 22.9124 21.625 23.5413 21.625C24.1701 21.625 24.6798 22.3746 24.6798 22.8041C24.6798 23.2336 24.1701 23.1805 23.5413 23.1805C22.9124 23.1805 22.4027 22.8322 22.4027 22.4027ZM26 28.3599C24.645 28.3599 23.5464 27.2461 23.5464 25.8723C23.5464 25.6933 23.5703 25.5211 23.6089 25.3542C23.6195 25.3085 23.6531 25.2716 23.6972 25.2565C23.7413 25.2418 23.7899 25.2513 23.8254 25.2814C24.2928 25.6796 25.0879 25.9441 26 25.9441C26.9121 25.9441 27.7072 25.6796 28.1745 25.2814C28.2101 25.251 28.2587 25.2415 28.3028 25.2565C28.3469 25.2713 28.3804 25.3085 28.3911 25.3542C28.4297 25.5211 28.4536 25.6933 28.4536 25.8723C28.4536 27.2461 27.355 28.3599 26 28.3599ZM27.3202 22.8041C27.3202 22.3746 27.8299 21.625 28.4588 21.625C29.0876 21.625 29.5973 21.9731 29.5973 22.4027C29.5973 22.8322 29.0876 23.1805 28.4588 23.1805C27.8299 23.1805 27.3202 23.2336 27.3202 22.8041Z"
        fill="white"
        fill-rule="evenodd" />
    <rect fill="#D8D8D8" height="23" opacity="0.01" stroke="#979797" width="23" x="18.5" y="15.5" />
</svg>
