<svg fill="none" height="60" viewBox="0 0 60 60" width="60" xmlns="http://www.w3.org/2000/svg">
    <defs>
        <linearGradient id="paint0_linear" x1="-22" x2="30" y1="27"
            y2="79">
            <stop stop-color="#DFDFDF" />
            <stop offset="1" stop-color="#A6A5A5" />
        </linearGradient>
    </defs>
    <path clip-rule="evenodd" d="M30 53C44.3594 53 56 41.3594 56 27C56 12.6406 44.3594 1 30 1C15.6406 1 4 12.6406 4 27C4 41.3594 15.6406 53 30 53Z"
        fill="url(#paint0_linear)"
        fill-rule="evenodd" stroke="#979797" stroke-width="0.2" />
    <path clip-rule="evenodd" d="M30.9681 17.1188C31.0003 17.6796 31.0366 18.3153 30.8105 18.615C30.621 18.8664 30.274 19.232 29.8138 19.6281C28.465 18.67 27.2515 18.0216 26.4676 17.6448C27.5665 17.2292 28.7572 17 30.0016 17C30.3263 17 30.6472 17.0167 30.9641 17.047L30.9681 17.1188ZM31.7484 29.8506C31.9761 28.8705 32.173 28.024 32.3291 27.4953C32.6855 26.2884 33.0437 25.5104 33.709 25.0159C35.4246 27.9989 36.1056 32.0172 36.1727 34.8582C34.4731 36.1942 32.3313 36.9934 30.0016 36.9934C29.9179 36.9934 29.8347 36.9905 29.7517 36.9876H29.7516H29.7516H29.7515H29.7515H29.7515L29.7512 36.9876L29.6807 36.9852C30.4322 35.3339 31.0758 32.7445 31.7484 29.8506ZM35.8756 24.3192C35.3829 24.3749 34.9674 24.4557 34.612 24.5692C36.3109 27.5353 36.9732 31.2827 37.1353 33.9975C38.8183 32.2826 39.8872 29.9644 39.9882 27.3965C38.8286 25.9711 37.2923 24.1585 35.8756 24.3192ZM28.9855 20.2756C28.0913 20.9098 26.9699 21.5106 25.7762 21.7589C25.3757 21.8422 24.9605 21.9194 24.5587 21.994L24.5549 21.9947C23.3093 22.226 22.041 22.4634 20.87 22.9299C21.7709 20.9103 23.3195 19.2434 25.2548 18.1972C25.5643 18.3241 27.1201 18.9909 28.9855 20.2756ZM32.6858 22.0496C32.7923 22.1567 32.8986 22.2656 33.0041 22.3766C33.3935 22.7854 33.7468 23.2325 34.0709 23.7055C34.5427 23.5274 35.0982 23.401 35.7632 23.3258C37.3299 23.1486 38.723 24.3897 39.9187 25.7561C39.6624 23.6847 38.774 21.81 37.4503 20.3315C36.7277 20.4186 35.9222 20.5661 35.1012 20.8111C34.5626 20.972 33.7049 21.409 32.6858 22.0496ZM33.1756 24.1725C32.2554 24.8223 31.7805 25.8234 31.3704 27.2122C31.2063 27.7678 31.0072 28.6243 30.7765 29.6166L30.7765 29.6166L30.7747 29.6243C30.293 31.697 29.4826 35.182 28.6215 36.8964C26.2567 36.5696 24.156 35.4179 22.621 33.7384C23.0808 29.739 28.1378 25.123 31.8295 22.6102C31.9808 22.7586 32.1314 22.9096 32.2803 23.066C32.6022 23.404 32.8994 23.7761 33.1756 24.1725ZM27.1846 25.0099C28.4718 23.8238 29.8312 22.7602 31.0745 21.9053C30.6601 21.5387 30.2444 21.2007 29.8363 20.8907C28.8036 21.667 27.4515 22.4315 25.9798 22.7376C25.5676 22.8234 25.1456 22.9018 24.7376 22.9775C23.1655 23.2695 21.6563 23.5522 20.3872 24.2603C20.1401 25.1303 20.0049 26.0475 20.0049 26.9967C20.0049 29.1201 20.669 31.0875 21.7979 32.7065C22.5292 29.8109 25.0377 26.9883 27.1846 25.0099ZM34.8154 19.8533C34.1502 20.0519 33.1249 20.5762 31.9356 21.3344C31.4996 20.9378 31.0624 20.5726 30.6322 20.2378C31.0715 19.8443 31.4091 19.4816 31.6086 19.2171C32.0286 18.6602 32.0119 17.8937 31.9736 17.1955C33.7039 17.5417 35.2714 18.3359 36.5538 19.4502C35.9988 19.545 35.4128 19.6749 34.8154 19.8533Z"
        fill="white"
        fill-rule="evenodd" />
    <rect fill="#D8D8D8" height="23" opacity="0.01" stroke="#979797" width="23" x="18.5" y="15.5" />
</svg>
